# xmcd CD database file
#
# Track frame offsets:
#	182
#	39975
#	74650
#	170362
#	198950
#	243125
#	270475
#
# Disc length: 4515 seconds
#
# Revision: 0
# Processed by: cddbd v1.4PL0 Copyright (c) Steve Scherf et al.
# Submitted via: CDex 1.50Beta7
#
DISCID=5811a107
DTITLE=John McLaughlin Trio - Live in Europe 1991
DYEAR=1991
DGENRE=Jazz
TTITLE0=1 Mite Stand
TTITLE1=Baba (for Ramana Maharishi)
TTITLE2=Florianapolis
TTITLE3=3 Willon's
TTITLE4=Belo Horizonte
TTITLE5=Jozy
TTITLE6=Are You The One (part 1-3)
EXTD=YEAR: 1991
EXTT0=
EXTT1=
EXTT2=
EXTT3=
EXTT4=
EXTT5=
EXTT6=
PLAYORDER=
